<?xml version="1.0" encoding="UTF-8"?>
<svg xmlns="http://www.w3.org/2000/svg" xmlns:xlink="http://www.w3.org/1999/xlink" width="180px" height="44px" viewBox="0 0 180 44" version="1.1">
<g id="surface1">
<path style=" stroke:none;fill-rule:nonzero;fill:rgb(10.980392%,90.980393%,96.078432%);fill-opacity:1;" d="M 19.484375 19.007812 L 18.402344 15.925781 L 20.117188 11.191406 C 20.480469 10.636719 20.589844 9.957031 20.417969 9.316406 C 20.246094 8.679688 19.808594 8.144531 19.21875 7.851562 L 17.054688 6.59375 L 17.6875 4.746094 L 22.1875 6.953125 L 26.894531 4.769531 L 27.53125 6.617188 L 25.722656 7.585938 C 24.101562 8.289062 24.101562 9.78125 24.570312 11.191406 L 31.695312 31.125 C 33.582031 36.308594 29.253906 37.09375 25.652344 38.863281 L 25.03125 37.09375 C 28.175781 35.605469 30.246094 35.074219 29.636719 31.390625 L 28.910156 29.460938 L 24.503906 17.773438 L 21.199219 17.773438 L 22.996094 13.824219 L 22.375 12.667969 Z M 19.484375 19.007812 "/>
<path style=" stroke:none;fill-rule:nonzero;fill:rgb(10.980392%,90.980393%,96.078432%);fill-opacity:1;" d="M 19.667969 19.355469 L 22.292969 19.355469 L 21.027344 23.222656 Z M 19.667969 19.355469 "/>
<path style=" stroke:none;fill-rule:nonzero;fill:rgb(10.980392%,90.980393%,96.078432%);fill-opacity:1;" d="M 15.882812 23.476562 L 17.035156 26.296875 L 15.078125 32 C 14.984375 34.902344 18.046875 36.136719 19.851562 37.28125 L 19.128906 38.929688 C 14.085938 36.828125 11.070312 36.125 13.453125 30.152344 Z M 15.882812 23.476562 "/>
<path style=" stroke:none;fill-rule:nonzero;fill:rgb(0%,31.37255%,39.215687%);fill-opacity:1;" d="M 25.066406 20.9375 L 27.046875 26.03125 L 24.261719 33.316406 L 20.289062 33.316406 L 13.71875 16.628906 L 9.035156 29.691406 C 8.585938 31.355469 10.023438 32.5 11.335938 33.15625 L 11.335938 34.992188 C 7.007812 32.972656 6.109375 32.277344 6.917969 29.289062 L 12.511719 13.210938 C 13.050781 11.28125 10.980469 10.484375 9.714844 9.609375 L 10.609375 7.757812 C 15.480469 9.78125 16.734375 11.457031 17.644531 15.40625 L 22.292969 29.691406 Z M 25.066406 20.9375 "/>
<path style=" stroke:none;fill-rule:nonzero;fill:rgb(0%,31.37255%,39.215687%);fill-opacity:1;" d="M 28.761719 21.605469 L 30.742188 16.59375 L 35.34375 29.300781 C 35.886719 31.839844 34.355469 32.277344 33.101562 33.074219 L 33.101562 34.914062 C 35.710938 33.757812 38.773438 32.984375 37.507812 29.136719 L 32.097656 13.523438 C 31.914062 12.367188 31.914062 11.6875 32.546875 11.0625 L 34.847656 9.664062 L 33.953125 7.726562 L 30.796875 9.132812 C 28.183594 10.289062 27.289062 13.003906 26.65625 15.902344 Z M 28.761719 21.605469 "/>
<path style="fill:none;stroke-width:3;stroke-linecap:butt;stroke-linejoin:miter;stroke:rgb(0%,31.37255%,39.215687%);stroke-opacity:1;stroke-miterlimit:4;" d="M 37.321492 18.92 C 37.321492 9.297557 29.30124 1.501518 19.410841 1.501518 C 9.517048 1.501518 1.500191 9.297557 1.500191 18.92 C 1.500191 28.542443 9.517048 36.338483 19.410841 36.338483 C 29.30124 36.338483 37.321492 28.542443 37.321492 18.92 Z M 37.321492 18.92 " transform="matrix(1.150895,0,0,1.154933,0,0.14866)"/>
<path style=" stroke:none;fill-rule:nonzero;fill:rgb(0%,31.37255%,39.215687%);fill-opacity:1;" d="M 59.800781 32.511719 L 63.253906 32.023438 L 63.976562 32.023438 L 67.027344 32.511719 L 67.027344 34.046875 L 59.800781 34.046875 Z M 59.882812 11.929688 L 64.230469 11.929688 L 64.230469 14.019531 L 63.726562 14.019531 L 59.882812 13.523438 Z M 62.699219 11.929688 L 64.230469 11.929688 L 64.472656 22.660156 L 64.472656 34.046875 L 62.699219 34.046875 Z M 62.78125 11.929688 L 66.796875 11.929688 L 73.402344 30.003906 L 72.355469 30.003906 L 78.6875 11.929688 L 80.539062 11.929688 L 72.898438 34.046875 L 70.824219 34.046875 Z M 76.453125 32.511719 L 80.320312 31.945312 L 81.367188 31.945312 L 85.625 32.429688 L 85.625 33.964844 L 76.417969 33.964844 Z M 79.03125 24.03125 L 79.113281 11.929688 L 83.140625 11.929688 C 83.058594 15.3125 83.058594 18.789062 83.058594 22.253906 L 83.058594 23.710938 C 83.058594 27.175781 83.058594 30.640625 83.140625 34.105469 L 78.953125 34.105469 C 79.03125 30.652344 79.03125 27.1875 79.03125 24.03125 Z M 80.988281 11.929688 L 85.59375 11.929688 L 85.59375 13.453125 L 81.332031 13.9375 L 80.988281 13.9375 Z M 80.988281 11.929688 "/>
<path style=" stroke:none;fill-rule:nonzero;fill:rgb(0%,31.37255%,39.215687%);fill-opacity:1;" d="M 101.703125 24.355469 C 101.703125 24.980469 101.648438 25.601562 101.542969 26.214844 L 89.65625 26.214844 L 89.65625 24.597656 L 96.25 24.597656 C 97.78125 24.597656 98.101562 23.953125 98.101562 22.738281 C 98.101562 20.730469 96.894531 19.273438 95.363281 19.273438 C 93.832031 19.273438 91.980469 20.890625 91.980469 25.730469 C 91.980469 29.84375 93.914062 31.945312 96.652344 31.945312 C 98.269531 31.929688 99.789062 31.152344 100.75 29.84375 L 101.636719 30.652344 C 100.550781 33.125 98.054688 34.667969 95.363281 34.53125 C 91.023438 34.53125 88.042969 31.378906 88.042969 26.132812 C 88.042969 20.890625 91.65625 17.578125 95.605469 17.578125 C 99.3125 17.578125 101.703125 20.324219 101.703125 24.355469 Z M 101.703125 24.355469 "/>
<path style=" stroke:none;fill-rule:nonzero;fill:rgb(0%,31.37255%,39.215687%);fill-opacity:1;" d="M 106.066406 27.023438 L 106.066406 25.246094 C 106.066406 23.386719 106.066406 22.578125 105.984375 21.214844 L 103.8125 20.890625 L 103.8125 19.738281 L 109.035156 17.632812 L 109.519531 17.957031 L 109.839844 22.070312 L 109.839844 27 C 109.839844 29.101562 109.839844 32.488281 109.921875 34.023438 L 105.984375 34.023438 C 105.984375 32.511719 106.066406 29.125 106.066406 27.023438 Z M 104.007812 32.671875 L 107.230469 32.023438 L 109.230469 32.023438 L 112.453125 32.671875 L 112.453125 34.046875 L 104.085938 34.046875 L 104.085938 32.671875 Z M 107.953125 22.578125 L 110.035156 22.578125 L 109.472656 23.144531 C 110.277344 19.515625 112.292969 17.578125 114.144531 17.578125 C 115.28125 17.53125 116.300781 18.265625 116.632812 19.355469 C 116.632812 20.972656 115.835938 21.929688 114.628906 21.929688 C 113.765625 21.90625 112.960938 21.480469 112.453125 20.777344 L 111.566406 19.726562 L 112.9375 19.804688 C 111.265625 20.964844 110.113281 22.726562 109.714844 24.726562 L 107.953125 24.5625 Z M 107.953125 22.578125 "/>
<path style=" stroke:none;fill-rule:nonzero;fill:rgb(0%,31.37255%,39.215687%);fill-opacity:1;" d="M 123.570312 25.003906 C 125.175781 24.4375 126.8125 23.976562 128.472656 23.628906 L 128.472656 24.921875 C 127.058594 25.21875 125.683594 25.679688 124.378906 26.296875 C 122.28125 27.1875 121.636719 28.398438 121.636719 29.679688 C 121.542969 30.304688 121.734375 30.9375 122.15625 31.40625 C 122.578125 31.878906 123.183594 32.132812 123.8125 32.105469 C 124.617188 32.105469 125.171875 31.78125 126.703125 30.652344 L 127.667969 29.921875 L 128.070312 30.488281 L 126.921875 31.644531 C 125.230469 33.503906 124.191406 34.472656 122.179688 34.472656 C 121.054688 34.546875 119.953125 34.125 119.164062 33.320312 C 118.371094 32.511719 117.972656 31.398438 118.070312 30.269531 C 117.886719 28.15625 118.96875 26.621094 123.570312 25.003906 Z M 126.539062 31.136719 L 126.539062 23.144531 C 126.539062 20.082031 125.816406 19.195312 123.8125 19.195312 C 122.820312 19.195312 121.835938 19.386719 120.914062 19.757812 L 122.605469 18.605469 L 122.121094 21.191406 C 121.960938 22.796875 121.234375 23.5 120.1875 23.5 C 119.28125 23.546875 118.5 22.871094 118.414062 21.964844 C 118.820312 19.308594 121.234375 17.609375 125.011719 17.609375 C 128.785156 17.609375 130.167969 19.308594 130.167969 23.664062 L 130.167969 30.925781 C 130.167969 31.980469 130.488281 32.464844 131.050781 32.464844 C 131.617188 32.464844 131.777344 32.222656 132.101562 31.734375 L 132.824219 32.382812 C 132.34375 33.730469 131.023438 34.589844 129.601562 34.484375 C 128.738281 34.476562 127.917969 34.113281 127.332031 33.480469 C 126.742188 32.847656 126.441406 32 126.496094 31.136719 Z M 126.539062 31.136719 "/>
<path style=" stroke:none;fill-rule:nonzero;fill:rgb(0%,31.37255%,39.215687%);fill-opacity:1;" d="M 139.292969 9.585938 L 139.777344 9.90625 L 139.613281 14.527344 L 139.613281 26.964844 C 139.613281 29.277344 139.613281 31.585938 139.695312 33.988281 L 135.828125 33.988281 C 135.910156 31.679688 135.910156 29.3125 135.910156 26.964844 L 135.910156 12.738281 L 133.609375 12.414062 L 133.609375 11.121094 Z M 141.859375 32.683594 L 141.859375 34.058594 L 133.734375 34.058594 L 133.734375 32.683594 L 136.957031 32.035156 L 138.535156 32.035156 Z M 141.859375 32.683594 "/>
<path style=" stroke:none;fill-rule:nonzero;fill:rgb(0%,31.37255%,39.215687%);fill-opacity:1;" d="M 148.949219 9.585938 L 149.433594 9.90625 L 149.269531 14.527344 L 149.269531 26.964844 C 149.269531 29.277344 149.269531 31.585938 149.351562 33.988281 L 145.4375 33.988281 C 145.519531 31.679688 145.519531 29.3125 145.519531 26.964844 L 145.519531 12.738281 L 143.21875 12.414062 L 143.21875 11.121094 Z M 151.515625 32.683594 L 151.515625 34.058594 L 143.390625 34.058594 L 143.390625 32.683594 L 146.589844 32 L 148.121094 32 Z M 151.515625 32.683594 "/>
<path style=" stroke:none;fill-rule:nonzero;fill:rgb(0%,31.37255%,39.215687%);fill-opacity:1;" d="M 155.222656 34.046875 C 155.300781 32.511719 155.300781 29.125 155.300781 27.023438 L 155.300781 25.40625 C 155.300781 23.546875 155.300781 22.578125 155.222656 21.214844 L 152.917969 20.890625 L 152.917969 19.738281 L 158.546875 17.632812 L 159.03125 17.957031 L 158.949219 22.578125 L 158.949219 27.023438 C 158.949219 29.125 158.949219 32.511719 159.03125 34.046875 Z M 160.976562 32.671875 L 160.976562 34.046875 L 153.253906 34.046875 L 153.253906 32.671875 L 156.394531 32.023438 L 157.914062 32.023438 Z M 154.785156 12.171875 C 154.785156 10.894531 155.8125 9.863281 157.085938 9.863281 C 158.355469 9.863281 159.386719 10.894531 159.386719 12.171875 C 159.386719 13.445312 158.355469 14.480469 157.085938 14.480469 C 155.8125 14.480469 154.785156 13.445312 154.785156 12.171875 Z M 154.785156 12.171875 "/>
<path style=" stroke:none;fill-rule:nonzero;fill:rgb(0%,31.37255%,39.215687%);fill-opacity:1;" d="M 164.878906 34.046875 C 164.957031 32.511719 164.957031 29.125 164.957031 27.023438 L 164.957031 25.246094 C 164.957031 23.386719 164.957031 22.578125 164.878906 21.214844 L 162.703125 20.890625 L 162.703125 19.738281 L 167.925781 17.632812 L 168.410156 17.957031 L 168.734375 21.746094 L 168.734375 27.082031 C 168.734375 29.183594 168.734375 32.566406 168.8125 34.105469 Z M 170.632812 32.671875 L 170.632812 34.046875 L 162.910156 34.046875 L 162.910156 32.671875 L 166.050781 32.023438 L 167.570312 32.023438 Z M 178.113281 23.546875 L 178.113281 27.011719 C 178.113281 29.113281 178.113281 32.5 178.191406 34.035156 L 174.210938 34.035156 C 174.292969 32.5 174.292969 29.195312 174.292969 27.011719 L 174.292969 23.917969 C 174.292969 21.332031 173.648438 20.453125 172.117188 20.453125 C 170.585938 20.453125 169.378906 21.261719 167.925781 22.761719 L 167.039062 22.761719 L 167.039062 20.914062 L 168.894531 20.914062 L 167.605469 21.710938 C 169.457031 18.972656 171.550781 17.601562 173.808594 17.601562 C 176.511719 17.578125 178.066406 19.4375 178.066406 23.546875 Z M 176.960938 32.023438 L 180.023438 32.671875 L 180.023438 34.046875 L 172.300781 34.046875 L 172.300781 32.671875 L 175.363281 32 Z M 176.960938 32.023438 "/>
</g>
</svg>
