<?xml version="1.0" encoding="UTF-8"?>
<svg xmlns="http://www.w3.org/2000/svg" xmlns:xlink="http://www.w3.org/1999/xlink" width="154px" height="36px" viewBox="0 0 153 36" version="1.1">
<g id="surface1">
<path style=" stroke:none;fill-rule:nonzero;fill:rgb(10.980392%,90.980393%,96.078432%);fill-opacity:1;" d="M 15.953125 15.457031 L 15.050781 12.824219 L 16.449219 8.835938 C 16.953125 7.46875 16.75 6.785156 15.652344 6.003906 L 13.855469 4.933594 L 14.351562 3.371094 L 18.148438 5.226562 L 22.136719 3.371094 L 22.640625 4.933594 L 21.148438 5.703125 C 19.75 6.289062 19.75 7.554688 20.175781 8.726562 L 26.167969 25.605469 C 27.757812 29.996094 24.070312 30.675781 21.070312 32.140625 L 20.574219 30.675781 C 23.273438 29.410156 24.960938 29.019531 24.457031 25.898438 L 23.855469 24.238281 L 20.167969 14.386719 L 17.476562 14.386719 L 18.972656 11.070312 L 18.476562 10.09375 Z M 15.953125 15.457031 "/>
<path style=" stroke:none;fill-rule:nonzero;fill:rgb(10.980392%,90.980393%,96.078432%);fill-opacity:1;" d="M 16.148438 15.75 L 18.351562 15.75 L 17.253906 18.96875 Z M 16.148438 15.75 "/>
<path style=" stroke:none;fill-rule:nonzero;fill:rgb(10.980392%,90.980393%,96.078432%);fill-opacity:1;" d="M 12.953125 19.261719 L 13.921875 21.605469 L 12.253906 26.394531 C 12.15625 28.832031 14.75 29.90625 16.253906 30.882812 L 15.652344 32.25 C 11.359375 30.492188 8.855469 29.90625 10.855469 24.832031 Z M 12.953125 19.261719 "/>
<path style=" stroke:none;fill-rule:nonzero;fill:rgb(0%,31.37255%,39.215687%);fill-opacity:1;" d="M 20.640625 17.117188 L 22.332031 21.410156 L 19.933594 27.554688 L 16.652344 27.554688 L 11.058594 13.410156 L 7.058594 24.445312 C 6.660156 25.808594 7.863281 26.785156 9.058594 27.371094 L 9.058594 28.929688 C 5.359375 27.273438 4.660156 26.589844 5.359375 24.152344 L 10.058594 10.589844 C 10.554688 8.933594 8.757812 8.25 7.660156 7.566406 L 8.457031 6.003906 C 12.554688 7.652344 13.652344 9.117188 14.351562 12.433594 L 18.234375 24.53125 Z M 20.640625 17.117188 "/>
<path style=" stroke:none;fill-rule:nonzero;fill:rgb(0%,31.37255%,39.215687%);fill-opacity:1;" d="M 23.738281 17.703125 L 25.4375 13.507812 L 29.320312 24.238281 C 29.816406 26.386719 28.515625 26.773438 27.378906 27.457031 L 27.378906 29.019531 C 29.585938 28.042969 32.175781 27.359375 31.078125 24.140625 L 26.488281 10.972656 C 26.285156 9.996094 26.285156 9.410156 26.886719 8.921875 L 28.886719 7.75 L 28.15625 6.101562 L 25.4375 7.265625 C 23.234375 8.238281 22.4375 10.484375 21.941406 13.019531 Z M 23.738281 17.703125 "/>
<path style="fill:none;stroke-width:2;stroke-linecap:butt;stroke-linejoin:miter;stroke:rgb(0%,31.37255%,39.215687%);stroke-opacity:1;stroke-miterlimit:4;" d="M 36.920743 18.399005 C 36.920743 8.789201 28.878402 1.001256 18.961258 1.001256 C 9.04009 1.001256 1.001772 8.789201 1.001772 18.399005 C 1.001772 28.008808 9.04009 35.800757 18.961258 35.800757 C 28.878402 35.800757 36.920743 28.008808 36.920743 18.399005 Z M 36.920743 18.399005 " transform="matrix(0.970935,0,0,0.975566,0,0.0544586)"/>
<path style="fill-rule:nonzero;fill:rgb(10.980392%,90.980393%,96.078432%);fill-opacity:1;stroke-width:0.2;stroke-linecap:butt;stroke-linejoin:miter;stroke:rgb(10.980392%,90.980393%,96.078432%);stroke-opacity:1;stroke-miterlimit:10;" d="M 40.778975 3.051347 L 44.778018 3.051347 L 51.001881 9.998435 L 57.000446 3.099396 L 60.098296 3.099396 C 58.899388 3.599907 58.501093 4.100418 58.501093 4.600928 L 58.501093 16.60117 C 59.792534 17.057636 61.204671 17.057636 62.500136 16.60117 L 62.500136 4.849181 C 62.399556 4.048364 61.598943 3.451756 60.601194 3.051347 L 68.59928 3.051347 L 68.59928 5.998354 C 68.200985 5.001337 67.798667 4.300622 67.199213 4.20052 L 64.000783 4.20052 L 64.000783 10.498945 L 65.40085 10.498945 C 66.100884 10.298741 66.499179 9.698128 66.700338 8.701111 L 66.700338 12.300783 C 66.499179 11.19966 66.100884 10.799251 65.40085 10.899354 L 64.000783 10.899354 L 64.000783 17.101681 L 67.098633 17.101681 C 68.023965 16.20877 68.651582 15.059598 68.901019 13.798311 L 68.901019 17.401987 L 40.899671 17.401987 C 42.098579 17.201783 43.30151 17.101681 43.30151 15.900456 L 43.30151 4.749079 C 43.180815 4.248569 42.179043 3.551858 40.778975 3.051347 Z M 40.778975 3.051347 " transform="matrix(0.970935,0,0,0.975566,0,0.0544586)"/>
<path style="fill-rule:nonzero;fill:rgb(6.27451%,9.411765%,15.686275%);fill-opacity:1;stroke-width:0.2;stroke-linecap:butt;stroke-linejoin:miter;stroke:rgb(6.27451%,9.411765%,15.686275%);stroke-opacity:1;stroke-miterlimit:10;" d="M 45.381496 7.15153 L 45.381496 16.549117 C 45.381496 16.749322 45.478052 16.849424 45.578632 16.849424 L 55.680842 16.849424 C 55.781422 16.849424 55.882001 16.749322 55.882001 16.549117 L 55.882001 7.351734 L 50.780606 13.349854 Z M 45.381496 7.15153 " transform="matrix(0.970935,0,0,0.975566,0,0.0544586)"/>
<path style=" stroke:none;fill-rule:nonzero;fill:rgb(10.980392%,90.980393%,96.078432%);fill-opacity:1;" d="M 68.527344 3.03125 C 69.148438 3.722656 69.582031 4.5625 69.789062 5.46875 L 69.789062 15.03125 C 69.800781 15.851562 69.296875 16.59375 68.527344 16.882812 L 72.820312 16.882812 C 72.210938 16.464844 71.84375 15.769531 71.847656 15.03125 L 71.847656 11.320312 L 72.820312 11.320312 C 75.34375 16.199219 77.964844 17.46875 79.519531 16.882812 C 78.453125 17.566406 74.566406 12.003906 74.566406 11.03125 C 78.160156 10.347656 78.0625 3.710938 74.566406 3.03125 L 68.546875 3.03125 "/>
<path style=" stroke:none;fill-rule:nonzero;fill:rgb(6.27451%,9.411765%,15.686275%);fill-opacity:1;" d="M 71.734375 3.617188 L 71.734375 10.347656 L 74.0625 10.347656 C 76.296875 7.808594 74.9375 3.710938 73.1875 3.617188 Z M 71.734375 3.617188 "/>
<path style=" stroke:none;fill-rule:nonzero;fill:rgb(10.980392%,90.980393%,96.078432%);fill-opacity:1;" d="M 52.507812 17.957031 C 52.410156 17.957031 53.867188 19.125 54.0625 20.394531 L 54.0625 29.957031 C 54.0625 30.929688 53.382812 31.417969 52.507812 31.808594 L 57.652344 31.808594 C 56.96875 31.441406 56.527344 30.734375 56.488281 29.957031 L 56.488281 26.25 L 57.652344 26.25 C 60.761719 31.125 63.769531 32.394531 65.714844 31.808594 C 64.449219 32.492188 59.691406 26.929688 59.691406 25.957031 C 64.0625 25.273438 63.867188 18.640625 59.691406 17.957031 L 52.507812 17.957031 "/>
<path style=" stroke:none;fill-rule:nonzero;fill:rgb(6.27451%,9.411765%,15.686275%);fill-opacity:1;" d="M 56.390625 18.589844 L 56.390625 25.320312 L 59.226562 25.320312 C 61.945312 22.785156 60.296875 18.6875 58.160156 18.589844 Z M 56.390625 18.589844 "/>
<path style=" stroke:none;fill-rule:nonzero;fill:rgb(10.980392%,90.980393%,96.078432%);fill-opacity:1;" d="M 85.324219 3.324219 L 89.695312 3.324219 L 98.53125 17.273438 C 95.027344 11.839844 90.550781 7.109375 85.324219 3.324219 Z M 85.324219 3.324219 "/>
<path style=" stroke:none;fill-rule:nonzero;fill:rgb(10.980392%,90.980393%,96.078432%);fill-opacity:1;" d="M 85.714844 5.46875 C 87.65625 7.128906 90.179688 8.101562 90.082031 10.054688 C 85.617188 10.152344 83.285156 13.273438 81.246094 17.371094 Z M 85.714844 5.46875 "/>
<path style="fill-rule:nonzero;fill:rgb(10.980392%,90.980393%,96.078432%);fill-opacity:1;stroke-width:0.3;stroke-linecap:butt;stroke-linejoin:miter;stroke:rgb(10.980392%,90.980393%,96.078432%);stroke-opacity:1;stroke-miterlimit:10;" d="M 103.48027 3.151449 L 109.281699 3.151449 C 107.881632 3.451756 107.881632 4.148467 107.881632 5.049386 L 107.881632 15.848402 C 107.881632 16.949526 107.881632 16.949526 108.581665 16.949526 L 111.3818 16.949526 C 113.280742 16.949526 113.679037 16.949526 114.181935 15.548096 L 114.181935 17.349934 L 103.081975 17.349934 C 104.280884 16.949526 105.379212 16.949526 105.379212 15.948505 L 105.379212 5.049386 C 105.479792 3.65196 104.578599 3.351654 103.48027 3.151449 Z M 103.48027 3.151449 " transform="matrix(0.970935,0,0,0.975566,0,0.0544586)"/>
<path style="fill-rule:nonzero;fill:rgb(10.980392%,90.980393%,96.078432%);fill-opacity:1;stroke-width:0.3;stroke-linecap:butt;stroke-linejoin:miter;stroke:rgb(10.980392%,90.980393%,96.078432%);stroke-opacity:1;stroke-miterlimit:10;" d="M 116.378593 3.151449 L 122.180021 3.151449 C 120.779954 3.451756 120.779954 4.148467 120.779954 5.049386 L 120.779954 15.848402 C 120.779954 16.949526 120.779954 16.949526 121.479988 16.949526 L 124.280122 16.949526 C 126.179064 16.949526 126.581383 16.949526 127.080257 15.548096 L 127.080257 17.349934 L 116.000413 17.349934 C 117.199322 16.949526 118.301674 16.949526 118.301674 15.948505 L 118.301674 5.049386 C 118.281558 3.65196 117.380365 3.351654 116.378593 3.151449 Z M 116.378593 3.151449 " transform="matrix(0.970935,0,0,0.975566,0,0.0544586)"/>
<path style=" stroke:none;fill-rule:nonzero;fill:rgb(10.980392%,90.980393%,96.078432%);fill-opacity:1;" d="M 136.105469 2.980469 C 137.078125 3.371094 137.851562 3.859375 137.757812 4.933594 L 137.757812 15.761719 C 137.660156 16.542969 136.882812 16.933594 136.105469 17.222656 L 151.253906 17.222656 L 151.253906 4.980469 C 151.253906 4.101562 151.933594 3.421875 153 3.03125 L 147.660156 3.03125 C 148.605469 3.285156 149.300781 4.097656 149.40625 5.078125 L 149.40625 11.613281 L 141.835938 2.980469 Z M 136.105469 2.980469 "/>
<path style=" stroke:none;fill-rule:nonzero;fill:rgb(6.27451%,9.411765%,15.686275%);fill-opacity:1;" d="M 139.40625 4.980469 L 139.40625 15.222656 C 139.503906 16.003906 139.796875 16.492188 140.476562 16.492188 L 148.339844 16.492188 C 149.019531 16.199219 149.214844 15.128906 148.339844 14.25 C 145.621094 11.128906 143 8.101562 140.183594 4.980469 C 139.503906 4.003906 139.40625 4.980469 139.40625 4.980469 Z M 139.40625 4.980469 "/>
<path style=" stroke:none;fill-rule:nonzero;fill:rgb(10.980392%,90.980393%,96.078432%);fill-opacity:1;" d="M 126.882812 3.03125 L 130.183594 3.03125 L 130.183594 16.980469 L 126.882812 16.980469 C 127.660156 16.785156 128.53125 16.6875 128.53125 15.808594 L 128.53125 4.101562 C 128.433594 3.617188 127.753906 3.226562 126.882812 3.03125 Z M 126.882812 3.03125 "/>
<path style=" stroke:none;fill-rule:nonzero;fill:rgb(10.980392%,90.980393%,96.078432%);fill-opacity:1;" d="M 133.289062 3.03125 L 129.988281 3.03125 L 129.988281 16.980469 L 133.289062 16.980469 C 132.511719 16.785156 131.640625 16.6875 131.640625 15.808594 L 131.640625 4.101562 C 131.988281 3.5 132.601562 3.101562 133.289062 3.03125 Z M 133.289062 3.03125 "/>
<path style="fill-rule:nonzero;fill:rgb(10.980392%,90.980393%,96.078432%);fill-opacity:1;stroke-width:0.2;stroke-linecap:butt;stroke-linejoin:miter;stroke:rgb(10.980392%,90.980393%,96.078432%);stroke-opacity:1;stroke-miterlimit:10;" d="M 51.38006 21.850526 L 51.38006 19.05167 C 43.67969 16.849424 38.678874 21.049709 40.48126 27.848645 C 42.581361 33.250155 50.080572 33.550462 51.878935 31.448317 L 51.878935 27.051832 C 51.903074 26.479248 52.253091 25.974733 52.780128 25.750504 L 48.378766 25.750504 C 48.978221 26.150913 49.380539 26.551321 49.380539 27.051832 L 49.380539 31.148011 C 48.173584 31.704579 46.785586 31.704579 45.578632 31.148011 C 41.579588 29.550381 41.181293 21.149811 45.578632 19.548177 C 46.660868 19.247871 47.799428 19.247871 48.881664 19.548177 C 50.060457 19.824459 51.009928 20.697349 51.38006 21.850526 Z M 51.38006 21.850526 " transform="matrix(0.970935,0,0,0.975566,0,0.0544586)"/>
<path style="fill-rule:nonzero;fill:rgb(10.980392%,90.980393%,96.078432%);fill-opacity:1;stroke-width:1;stroke-linecap:butt;stroke-linejoin:miter;stroke:rgb(10.980392%,90.980393%,96.078432%);stroke-opacity:1;stroke-miterlimit:10;" d="M 80.978612 25.5503 C 80.978612 21.850526 78.114106 18.851466 74.581752 18.851466 C 71.045375 18.851466 68.180869 21.850526 68.180869 25.5503 C 68.180869 29.250074 71.045375 32.249134 74.581752 32.249134 C 78.114106 32.249134 80.978612 29.250074 80.978612 25.5503 Z M 80.978612 25.5503 " transform="matrix(0.970935,0,0,0.975566,0,0.0544586)"/>
<path style="fill-rule:nonzero;fill:rgb(6.27451%,9.411765%,15.686275%);fill-opacity:1;stroke-width:1;stroke-linecap:butt;stroke-linejoin:miter;stroke:rgb(6.27451%,9.411765%,15.686275%);stroke-opacity:1;stroke-miterlimit:10;" d="M 79.07967 24.949687 C 79.07967 21.582252 77.108311 18.851466 74.678309 18.851466 C 72.248307 18.851466 70.28097 21.582252 70.28097 24.949687 C 70.28097 28.317123 72.248307 31.051913 74.678309 31.051913 C 77.108311 31.051913 79.07967 28.317123 79.07967 24.949687 Z M 79.07967 24.949687 " transform="matrix(0.970935,0,0,0.975566,0,0.0544586)"/>
<path style="fill-rule:nonzero;fill:rgb(10.980392%,90.980393%,96.078432%);fill-opacity:1;stroke-width:0.2;stroke-linecap:butt;stroke-linejoin:miter;stroke:rgb(10.980392%,90.980393%,96.078432%);stroke-opacity:1;stroke-miterlimit:10;" d="M 81.678646 18.651262 L 87.08178 18.651262 C 86.43807 18.827442 85.874825 19.215838 85.480553 19.748381 L 85.480553 28.249053 C 85.480553 30.251096 86.780041 31.548419 89.278437 31.448317 C 91.281982 31.348215 92.778606 30.251096 92.58147 27.748543 L 92.58147 19.848483 C 92.295824 19.251875 91.796949 18.787401 91.181402 18.55116 L 95.079866 18.55116 C 94.379832 18.951568 93.780378 19.351977 93.880957 19.848483 L 93.880957 28.048849 C 93.780378 31.248113 91.680277 32.449338 88.481847 32.649543 L 87.999065 32.649543 C 86.558766 32.745641 85.142606 32.221105 84.112671 31.208072 C 83.082736 30.199043 82.53156 28.793609 82.599954 27.348134 L 82.599954 19.748381 C 82.99825 19.351977 82.378679 18.999617 81.678646 18.651262 Z M 81.678646 18.651262 " transform="matrix(0.970935,0,0,0.975566,0,0.0544586)"/>
<path style="fill-rule:nonzero;fill:rgb(10.980392%,90.980393%,96.078432%);fill-opacity:1;stroke-width:0.2;stroke-linecap:butt;stroke-linejoin:miter;stroke:rgb(10.980392%,90.980393%,96.078432%);stroke-opacity:1;stroke-miterlimit:10;" d="M 97.381126 18.55116 L 104.180304 18.55116 C 111.679516 20.048688 106.578121 28.349155 101.979623 26.551321 C 106.280405 26.95173 106.879859 19.351977 101.979623 19.351977 L 101.078431 19.351977 L 101.078431 31.148011 C 101.078431 31.948828 101.681908 32.449338 102.579077 32.54944 L 97.481706 32.54944 C 98.08116 32.249134 98.479455 31.948828 98.580034 31.348215 L 98.580034 19.548177 C 98.479455 18.999617 98.000696 18.751364 97.381126 18.55116 Z M 97.381126 18.55116 " transform="matrix(0.970935,0,0,0.975566,0,0.0544586)"/>
</g>
</svg>
